<svg width="1254" height="421" viewBox="0 0 1254 421" fill="none" xmlns="http://www.w3.org/2000/svg">
<g clip-path="url(#clip0)">
<path d="M827.928 97.5383C829.537 101.166 831.423 105.281 833.201 109.441C834.668 112.876 837.093 116.38 837.126 119.867C837.216 134.748 836.964 149.682 836.12 164.546C833.464 210.459 830.703 256.389 827.479 302.26C826.38 317.756 824.092 333.167 821.678 348.516C821.149 351.858 818.227 355.208 815.625 357.75C806.309 366.799 806.59 380.836 816.597 388.063C824.234 393.558 833.971 392.678 840.807 385.919C847.557 379.258 848.685 368.73 842.156 361.235C837.522 355.932 836.782 350.366 836.931 344.006C837.668 311.632 837.653 279.231 839.194 246.89C840.316 223.178 843.303 199.575 845.669 175.927C847.25 160.231 849.448 144.633 850.848 128.924C851.483 121.611 853.557 115.962 859.745 111.315C866.124 106.551 867.466 99.1592 865.228 91.6637C863.133 84.6987 857.89 80.6256 850.781 79.3297C843.082 77.9129 836.538 80.2984 832.137 86.8441C830.327 89.5731 829.659 93.0352 827.928 97.5383Z" fill="white"/>
<path d="M39.1848 106.794C41.3409 87.4738 43.6264 68.1627 45.5756 48.8273C46.1475 43.096 48.0666 38.8666 52.9046 35.2651C61.0716 29.1488 62.9197 19.0894 58.2779 11.0294C53.636 2.96941 44.0866 -0.531961 35.3538 2.6309C23.0699 7.07029 19.3625 22.3255 27.7588 32.4002C29.7924 34.8361 31.4809 38.4432 31.4903 41.5383C31.574 55.7945 31.423 70.0596 30.5994 84.2759C27.8181 131.921 24.9055 179.583 21.6327 227.192C20.6858 240.958 18.1869 254.61 16.7467 268.366C16.2235 273.425 14.2921 277.107 10.3598 280.41C3.87883 285.869 1.32618 293.095 4.21242 301.339C6.75235 308.623 12.0117 313.191 19.9399 313.948C28.099 314.748 34.3579 311.276 38.3441 304.362C42.5969 297 41.4764 289.507 36.2116 283.222C32.7664 279.098 31.1671 274.977 31.3116 269.761C32.2579 231.994 32.8938 194.205 34.1524 156.434C34.7071 139.832 36.4554 123.265 37.6586 106.683C38.1501 106.719 38.6675 106.757 39.1848 106.794Z" fill="white"/>
<path d="M796.635 364.667C795.255 360.744 794.914 355.779 792.271 353.143C785.694 346.659 785.67 338.752 786.081 330.928C788.897 277.435 791.633 223.961 795.251 170.526C796.513 152.051 800.003 133.711 803.022 115.39C803.491 112.511 806.447 109.761 808.819 107.541C816.466 100.347 817.99 90.4461 812.328 82.4681C806.548 74.3256 796.094 71.8247 787.663 76.5696C778.284 81.818 775.37 94.0363 782.116 103.549C786.551 109.8 787.544 116.191 787.5 123.599C787.191 179.823 783.593 235.86 777.613 291.75C775.9 307.826 773.36 323.842 770.564 339.788C769.939 343.383 767.278 347.09 764.564 349.728C758.291 355.904 756.427 364.038 760.335 372.174C763.928 379.638 772.519 383.798 780.861 382.089C789.889 380.222 794.891 374.37 796.635 364.667Z" fill="white"/>
<path d="M72.2152 33.6239C71.4376 41.4726 74.2458 46.8512 78.9483 51.9251C81.3107 54.4889 83.5754 58.3978 83.5698 61.6999C83.529 83.0461 83.8189 104.494 82.1983 125.752C79.1693 165.344 75.0279 204.855 71.0935 244.382C70.2375 252.953 68.5537 261.464 66.6686 269.882C66.0835 272.57 63.9261 275.066 62 277.241C55.4596 284.593 55.6554 294.437 62.728 300.177C69.8006 305.917 80.1148 304.611 85.1078 296.366C87.0591 293.127 88.3298 287.082 86.6236 284.436C79.5826 273.602 81.431 261.748 82.1182 250.486C85.078 201.814 88.7382 153.166 92.5795 104.532C93.6857 90.362 95.9579 76.2508 98.3039 62.197C98.7709 59.3444 101.448 56.1322 103.989 54.4443C113.685 48.0489 116.574 40.1194 112.563 28.7506C109.153 19.1158 100.462 13.4664 91.1047 14.8417C80.2506 16.4204 72.9393 24.003 72.2152 33.6239Z" fill="white"/>
<path d="M891.113 245.248C894.676 215.498 899.161 177.338 904.007 139.23C904.356 136.577 906.918 133.513 909.32 131.945C918.441 125.949 921.386 119.766 919.082 109.588C916.764 99.2519 910.242 93.0838 900.834 92.2971C891.555 91.5197 883.273 96.3535 879.435 104.812C875.474 113.522 877.755 122.581 884.843 129.544C887.028 131.679 889.184 135.294 889.056 138.145C887.165 182.111 885.635 226.128 882.476 270.027C880.694 294.94 876.324 319.69 872.63 344.438C872.063 348.297 869.319 352.077 866.87 355.357C861.713 362.29 861.452 370.177 866.779 375.972C872.177 381.85 880.12 382.765 886.689 378.249C892.379 374.371 895.8 367 892.201 361.408C885.586 351.151 887.373 340.151 887.605 329.428C888.186 304.221 889.654 278.973 891.113 245.248Z" fill="white"/>
<path d="M748.175 346.224C746.809 343.551 744.035 338.409 741.558 333.132C739.915 329.607 737.331 325.805 737.486 322.227C739.59 276.041 741.719 229.857 744.756 183.712C746.094 163.475 749.321 143.374 752.21 123.274C752.843 118.848 755.095 114.33 757.631 110.562C765.151 99.3798 760.406 86.2936 747.968 84.975C736.149 83.7272 726.421 95.5812 732.641 105.55C739.534 116.634 738.527 128.002 737.788 139.26C734.011 198.119 729.561 256.929 725.292 315.752C724.808 322.426 722.938 327.777 716.241 331.555C707.537 336.463 705.084 347.336 709.067 356.596C712.535 364.701 721.678 369.499 730.886 368.035C740.332 366.51 747.246 359.029 748.175 346.224Z" fill="white"/>
<path d="M473.059 314.637C471.516 311.534 469.538 307.62 467.587 303.682C465.319 299.097 462.203 294.736 460.967 289.914C443.56 221.977 432.129 153.017 426.094 83.1751C425.817 79.8265 428.151 75.9653 430.021 72.7725C434.483 65.0352 434.193 56.8489 428.641 49.867C423.829 43.797 415.567 41.8973 407.465 44.9759C393.853 50.151 391.019 67.706 402.912 76.8903C408.405 81.1114 410.807 85.9924 412.034 92.3744C421.117 138.852 430.807 185.218 439.335 231.812C443.1 252.316 444.912 273.224 446.836 294.011C447.272 298.749 445.021 303.969 443.249 308.677C440.185 316.854 443.106 325.699 450.534 329.047C458.265 332.52 467.078 329.337 470.808 321.65C471.638 319.89 472.011 317.967 473.059 314.637Z" fill="white"/>
<path d="M1180.12 159.969C1180.6 158.703 1181.3 156.232 1182.43 153.973C1186.29 146.218 1184.69 138.535 1178.08 133.999C1171.81 129.695 1162.9 130.635 1158 136.131C1152.71 142.065 1152.03 151.455 1158.19 156.557C1164.71 161.997 1166.19 168.787 1167.63 176.225C1176.44 222.111 1185.84 267.883 1194.05 313.856C1197.78 334.8 1199.4 356.162 1201.58 377.358C1201.87 380.135 1200.5 383.728 1198.69 385.989C1191.63 394.812 1191.75 406.47 1199.49 413.3C1207.19 420.073 1219.01 419.578 1225.79 412.191C1233.21 404.097 1232.64 392.301 1223.7 384.658C1219.15 380.765 1216.85 376.281 1215.41 370.612C1198.36 303.455 1187.71 235.229 1180.25 166.427C1180.01 164.745 1180.13 162.986 1180.12 159.969Z" fill="white"/>
<path d="M374.446 82.8856C375.017 81.4708 375.949 78.6521 377.207 76.0129C380.669 68.801 378.793 60.9678 372.401 56.6034C366.23 52.411 357.855 53.1555 352.823 58.3551C347.199 64.1879 345.996 73.5921 352.182 78.6437C359.621 84.7222 360.789 92.6341 362.356 100.783C371.076 145.804 380.219 190.752 388.256 235.88C391.988 256.824 393.664 278.165 395.793 299.356C396.111 302.5 394.547 306.495 392.515 309.052C385.929 317.389 386.195 329.136 393.815 335.93C400.972 342.3 413.214 342.019 419.761 335.291C427.039 327.81 427.056 315.043 418.9 308.106C413.635 303.615 410.915 298.451 409.281 291.936C392.623 225.145 381.94 157.358 374.496 89.0002C374.398 87.4848 374.481 85.9826 374.446 82.8856Z" fill="white"/>
<path d="M922.217 143.412C921.014 155.339 924.564 161.239 929.983 166.833C932.331 169.24 934.286 173.464 934.052 176.698C931.41 212.027 928.794 247.359 925.042 282.582C923.26 299.251 919.206 315.703 915.802 332.151C915.157 335.302 912.913 338.286 910.825 340.891C906.107 346.789 905.668 353.909 910.173 359.202C914.485 364.274 921.517 365.564 927.138 362.279C933.354 358.674 935.061 352.349 932.926 344.861C931.496 339.842 930.281 334.371 930.653 329.25C933.231 294.8 935.733 260.318 939.371 225.945C941.095 209.714 945.016 193.668 948.671 177.707C949.36 174.662 953.158 171.765 956.202 169.958C965.005 164.746 970.228 155.842 969.195 146.431C968.026 136.023 961.645 128.279 951.744 125.324C937.467 121.037 923.153 131.596 922.217 143.412Z" fill="white"/>
<path d="M116.368 68.3968C115.539 77.672 118.104 83.891 123.855 88.4949C127.811 91.6685 129.033 95.2676 128.589 100.306C125.551 134.281 123.34 168.341 119.681 202.271C117.771 219.997 113.666 237.512 110.181 255.071C109.605 257.994 107.401 260.772 105.43 263.204C100.545 269.246 99.9684 276.121 104.334 281.535C108.722 287.002 115.702 288.289 121.758 284.75C127.815 281.185 129.48 274.726 127.241 267.231C125.796 262.419 124.67 257.163 125.026 252.248C127.563 218.003 129.997 183.751 133.618 149.61C135.357 133.172 139.345 116.923 143.014 100.755C143.705 97.6845 147.212 94.5065 150.221 92.8265C163.933 85.1883 167.949 68.5512 158.586 56.3781C152.575 48.5568 142.562 45.3598 133.12 48.2632C122.881 51.3948 116.878 59.2284 116.368 68.3968Z" fill="white"/>
<path d="M375.781 308.15C376.973 299.603 373.314 293.409 366.785 288.072C364.06 285.846 361.56 282.31 360.738 278.948C347.269 223.389 337.042 167.232 331.736 110.263C331.074 103.272 330.165 96.4449 333.562 89.4103C336.866 82.5771 333.505 75.4942 327.283 72.3643C321.588 69.5067 315.008 70.9535 311.03 75.9695C306.311 81.868 306.724 87.6448 311.818 94.1254C313.89 96.7462 316.223 99.7238 316.827 102.862C325.24 147.107 333.733 191.332 341.434 235.707C344.036 250.744 344.818 266.117 345.712 281.394C345.89 284.319 343.284 287.979 340.979 290.36C329.359 302.493 332.98 320.672 348.361 326.235C361.158 330.856 373.884 322.47 375.781 308.15Z" fill="white"/>
<path d="M1158.76 404.545C1168.14 405.304 1177.21 400.059 1180.23 392.087C1183.92 382.396 1181.54 372.211 1173.34 366.597C1168.83 363.514 1166.87 359.757 1165.68 354.652C1152.65 299.462 1142.68 243.741 1137.26 187.283C1136.6 180.553 1135.66 173.853 1139.12 167.057C1142.45 160.486 1139.52 153.564 1133.73 150.206C1128.1 146.91 1120.96 148.083 1116.68 152.999C1112.09 158.282 1112.51 165.022 1117.17 171.341C1119.51 174.528 1121.98 178.139 1122.7 181.91C1131.1 225.894 1139.48 269.902 1147.23 314.021C1149.64 327.77 1149.99 341.889 1151.48 355.805C1152 360.732 1150.65 364.301 1146.86 367.745C1140.07 373.935 1138.05 382.031 1140.98 390.721C1143.77 398.933 1149.9 403.694 1158.76 404.545Z" fill="white"/>
<path d="M478.485 99.0426C479.279 97.41 480.371 94.1868 482.257 91.4892C487.742 83.644 488.848 75.5591 483.807 67.2621C478.793 58.967 470.602 56.4484 461.535 56.7005C454.16 56.9195 446.485 65.2039 445.068 73.6303C443.245 84.4196 447.268 93.8389 456.698 96.8375C463.51 98.9961 465.268 103.076 466.564 109.229C478.489 165.639 486.531 222.521 488.693 280.172C488.877 285.152 488.005 290.367 486.589 295.179C484.821 301.266 488.039 311.043 496.355 312.895C503.727 314.522 512.345 309.348 513.191 301.634C513.512 298.641 511.6 295.252 510.286 292.218C507.897 286.792 503.947 281.747 502.744 276.095C491.311 222.945 483.688 169.24 479.352 115.046C478.965 110.337 478.841 105.595 478.485 99.0426Z" fill="white"/>
<path d="M702.9 314.361C703.421 307.534 701.053 301.823 696.283 297.316C692.319 293.544 691.35 289.339 691.426 283.988C692.008 239.772 697.776 196.114 705.452 152.698C707.317 142.042 708.429 131.019 715.454 121.647C719.226 116.616 717.2 109.058 712.699 105.143C707.857 100.917 701.327 100.599 695.96 104.318C690.947 107.829 688.376 114.586 691.568 120.408C695.863 128.235 695.293 136.099 694.566 144.315C691.927 174.236 689.932 204.23 686.648 234.078C684.725 251.621 681.097 269.014 677.629 286.341C677.099 288.981 673.632 291.616 670.919 293.161C662.216 298.069 657.264 307.539 659.12 317.087C660.9 326.239 669.117 334.117 678.034 335.232C687.414 336.406 697.375 330.654 700.957 321.787C701.933 319.439 702.278 316.838 702.9 314.361Z" fill="white"/>
<path d="M1017.12 192.269C1018.08 179.805 1011.3 169.015 999.895 164.859C987.81 160.472 974.322 164.668 967.146 175.043C960.144 185.17 960.359 199.046 968.975 207.888C973.864 212.898 974.516 217.886 974.032 224.195C971.95 252.18 965.317 279.081 955.333 305.219C954.143 308.357 951.204 310.874 950.271 314.057C948.793 319.02 947.229 324.445 947.968 329.31C948.322 331.598 953.846 333.949 957.331 334.67C963.252 335.854 969.3 330.26 967.858 324.694C964.695 312.373 967.303 300.444 970.018 288.836C975.015 267.277 981.445 246.031 987.237 224.634C988.376 220.4 991.008 218.536 995.368 217.578C1008.97 214.613 1016.07 206.027 1017.12 192.269Z" fill="white"/>
<path d="M186.475 85.9399C174.707 85.06 164.171 91.2124 159.238 101.854C154.461 112.143 156.782 123.519 164.479 132.477C166.829 135.222 168.562 139.638 168.407 143.215C167.087 173.232 159.825 201.985 148.984 229.907C147.996 232.41 145.18 234.312 144.528 236.839C143.205 241.813 141.285 247.499 142.595 252.015C143.368 254.619 149.837 256.493 153.963 256.974C158.889 257.54 163.446 252.436 162.313 247.621C158.317 230.662 163.651 214.485 166.82 198.41C170.162 181.386 176.452 164.94 181.282 148.18C182.711 143.187 185.675 141.036 190.721 139.946C204.855 136.889 212.973 124.996 211.735 110.162C210.606 97.0524 200.105 86.955 186.475 85.9399Z" fill="white"/>
<path d="M1112.37 372.185C1123.19 372.866 1132.62 366.893 1136.28 357.017C1140.13 346.583 1137.09 335.025 1127.65 329.035C1121.53 325.158 1118.95 320.29 1117.72 313.492C1112.39 283.383 1106.46 253.386 1101.39 223.218C1100.04 215.267 1101.09 206.892 1100.98 198.745C1100.94 194.685 1101.7 190.268 1100.38 186.635C1099.14 183.269 1095.79 178.553 1093.08 178.356C1089.01 178.061 1083.89 180.29 1080.74 183.13C1077.1 186.402 1079.58 190.899 1081.74 194.852C1084.37 199.724 1087.26 204.718 1088.57 210.014C1097.29 245.648 1103.76 281.664 1105.8 318.348C1106.06 322.996 1105.09 326.28 1100.63 329.024C1091.81 334.469 1088.31 344.695 1090.91 354.401C1093.64 364.48 1102.15 371.547 1112.37 372.185Z" fill="white"/>
<path d="M295.917 122.98C295.445 117.667 295.796 112.101 294.207 107.123C293.316 104.354 289.065 100.587 286.657 100.803C282.442 101.199 277.644 103.529 274.743 106.595C273.222 108.201 274.591 113.345 275.713 116.521C277.599 121.703 281.267 126.337 282.599 131.635C291.654 167.397 298.021 203.64 300.152 240.564C300.424 245.421 299.365 248.906 294.833 251.88C285.685 257.899 282.459 268.665 285.822 278.582C289.01 288.045 297.755 294.738 307.083 294.843C319.085 295.012 327.547 289.125 331.154 278.127C334.358 268.374 331.345 257.572 322.314 251.95C315.696 247.829 313.231 242.372 311.953 235.258C306.623 205.149 300.818 175.135 295.619 145.009C294.394 137.873 294.857 130.418 294.529 123.113C294.977 123.042 295.448 122.998 295.917 122.98Z" fill="white"/>
<path d="M657.284 142.442C656.242 156.798 656.536 171.382 653.828 185.409C650.396 203.311 644.835 220.824 639.434 238.271C638.485 241.322 634.148 244.466 630.776 245.418C619.226 248.714 611.481 256.889 610.428 268.541C609.404 279.778 615.972 290.682 626.348 294.972C636.673 299.257 648.345 296.438 655.702 287.87C663.567 278.742 665.191 266.404 657.794 256.896C652.059 249.562 651.709 242.204 652.624 233.897C655.509 208.103 660.902 182.88 670.053 158.555C671.15 155.618 673.017 152.815 675.086 150.469C678.912 146.118 680.357 141.62 677.305 136.38C674.691 131.899 671.107 129.325 665.55 130.664C659.383 132.141 656.768 136.293 657.284 142.442Z" fill="white"/>
<path d="M523.414 138.89C524.908 136.58 526.677 132.99 529.179 130.051C535.177 122.997 537.971 115.321 535.23 106.151C532.446 96.8474 523.743 89.923 514.29 89.393C504.034 88.8308 494.428 94.3486 490.545 103.064C486.634 111.804 488.36 123.137 494.688 129.473C496.02 130.818 497.604 132.285 499.337 132.774C507.821 135.184 510.689 141.529 512.563 149.389C521.235 185.773 525.602 222.703 527.291 259.985C527.444 263.247 525.744 266.608 524.831 269.87C523.288 275.375 524.981 279.633 529.699 282.705C533.968 285.512 538.305 285.592 542.287 282.319C546.517 278.855 548.32 274.435 545.82 269.105C532.465 240.65 530.181 209.774 526.494 179.238C524.924 166.46 524.486 153.504 523.414 138.89Z" fill="white"/>
<path d="M625.284 163.809C624.034 167.411 623.087 171.139 621.411 174.528C619.185 179.047 616.382 181.834 610.156 179.848C596.154 175.347 581.754 182.077 574.833 195.383C568.67 207.21 572.364 223.678 583.109 232.207C593.828 240.734 609.966 240.865 620.326 232.489C632.203 222.898 635.705 207.966 628.465 194.854C625.384 189.3 623.555 184.045 627.381 178.627C629.352 175.832 632.354 173.163 635.461 171.907C642.801 168.955 645.809 165.481 644.669 159.339C643.772 154.489 638.763 150.771 633.739 151.213C627.376 151.817 624.959 155.022 625.284 163.809Z" fill="white"/>
<path d="M291.721 228.095C291.625 218.675 286.834 210.162 277.096 204.956C272.089 202.279 268.806 198.79 267.794 193.386C264.991 178.62 261.951 163.89 259.832 149.018C259.146 144.131 260.804 138.843 261.741 133.814C262.639 128.964 262.323 124.729 257.717 121.898C253.684 119.421 249.507 118.936 245.752 122.304C241.747 125.888 240.463 130.684 243.389 135.161C255.206 153.285 254.445 174.162 256.828 194.358C257.381 198.923 256.568 202.245 251.432 204.576C238.738 210.364 233.54 223.587 237.734 237.101C241.865 250.403 253.74 258.052 267.599 256.275C280.695 254.625 291.152 243.11 291.721 228.095Z" fill="white"/>
<path d="M1019.37 287.424C1037.52 290.614 1049.78 277.565 1053.08 261.916C1055.89 248.572 1045.24 232.952 1031.39 229.294C1015.09 224.99 1000.82 232.718 994.849 248.719C991.491 257.733 992.973 265.98 997.535 274.06C999.101 276.852 1002.1 280.736 1001.23 282.598C998.747 287.826 995.808 293.568 988.608 294.241C983.869 294.678 980.555 296.985 979.768 302.103C978.809 308.508 982.275 313.779 988.043 314.561C994.715 315.435 998.898 311.188 1000 304.221C1000.77 299.362 1002.84 294.494 1005.29 290.173C1007.63 286.13 1009.21 286.245 1019.37 287.424Z" fill="white"/>
<path d="M192.768 224.971C195.551 220.31 197.748 215.113 201.358 211.24C203.108 209.339 207.658 208.993 210.689 209.499C228.496 212.455 240.864 205.422 246.262 188.729C250.784 174.781 243.195 158.966 229.215 153.089C214.526 146.952 198.105 152.86 191.134 166.864C185.385 178.357 186.025 189.247 194.255 199.465C197.547 203.553 193.336 212.843 186.875 215.884C185.906 216.334 184.865 216.7 183.81 216.91C176.282 218.522 173.188 222.094 173.977 228.418C174.682 234.112 178.954 237.595 184.805 237.239C191.18 236.818 193.808 233.576 192.768 224.971Z" fill="white"/>
<path d="M1067.26 333.806C1080.35 334.781 1092.47 326.43 1096.25 313.832C1099.85 301.845 1094.54 288.666 1082.92 282.492C1077.49 279.602 1074.16 275.616 1073.02 269.787C1070.37 255.864 1067.45 241.948 1065.48 227.919C1064.77 223.005 1066.14 217.67 1067.16 212.647C1068.26 207.162 1068.35 202.306 1062.89 199.023C1058.71 196.509 1054.62 196.525 1051.04 200.009C1046.62 204.291 1046.64 209.364 1049.78 214.168C1059.87 229.541 1059.84 247.246 1061.78 264.498C1062.01 266.413 1062.18 268.35 1062.4 270.264C1063.05 275.72 1062.45 279.707 1056.16 282.449C1045.34 287.151 1040.08 299.536 1042.54 311.105C1045.38 324.313 1054.69 332.868 1067.26 333.806Z" fill="white"/>
<path d="M558.481 128.303C545.933 127.419 533.835 136.11 530.879 148.169C527.707 161.071 534.058 175.314 546.086 179.775C552.239 182.068 554.699 185.081 555.368 191.631C556.881 206.615 559.678 221.458 561.348 236.427C561.82 240.674 560.701 245.351 559.332 249.517C557.593 254.851 558.706 258.859 562.917 262.103C566.883 265.147 571.045 264.773 574.818 261.874C579.251 258.477 580.083 253.467 577.351 249.186C566.912 232.852 567.667 214.21 565.52 196.138C565.306 194.432 565.433 192.673 565.088 190.984C563.858 184.992 565.749 181.15 571.275 177.755C582.027 171.124 586.085 159.639 582.998 148.077C580.103 137.075 570.226 129.129 558.481 128.303Z" fill="white"/>
</g>
<defs>
<clipPath id="clip0">
<rect width="332.417" height="1232.31" transform="matrix(-0.0723755 0.997377 0.997377 0.0723755 24.3535 0.142456)" fill="white"/>
</clipPath>
</defs>
</svg>
