<svg width="77" height="77" viewBox="0 0 77 77" fill="none" xmlns="http://www.w3.org/2000/svg">
<g clip-path="url(#clip0)">
<path d="M8.86094 1C9.03094 1 9.19094 1 9.36094 1C9.63094 1.39 9.86094 1.82 10.1909 2.15C19.2309 11.21 28.2909 20.27 37.3509 29.32C37.7509 29.72 38.1809 30.07 38.6809 30.52C39.0809 30.19 39.4109 29.96 39.6909 29.68C48.9809 20.4 58.2709 11.11 67.5509 1.81C67.7609 1.6 67.8709 1.28 68.0309 1C68.2009 1 68.3609 1 68.5309 1C71.0209 3.49 73.5009 5.97 75.9909 8.46C75.9909 8.63 75.9909 8.79 75.9909 8.96C75.6009 9.23 75.1609 9.45 74.8409 9.78C65.7809 18.83 56.7209 27.88 47.6709 36.94C47.2709 37.34 46.9209 37.77 46.6309 38.1C46.6609 38.37 46.6409 38.48 46.6909 38.52C56.3709 48.22 66.0609 57.91 75.7609 67.6C75.8009 67.64 75.9209 67.61 76.0009 67.62C76.0009 67.79 76.0009 67.95 76.0009 68.12C73.4409 70.52 70.8809 72.92 68.0209 75.6C58.1709 65.75 48.4109 55.99 38.5009 46.07C28.7609 55.84 19.0109 65.61 9.32094 75.32C6.73094 72.72 4.29094 70.27 1.46094 67.42C11.1909 57.7 20.9909 47.9 31.1609 37.74C21.3609 27.98 11.6009 18.23 1.83094 8.47C4.13094 6.02 6.50094 3.51 8.86094 1Z" stroke="white" stroke-width="2" stroke-miterlimit="10"/>
</g>
<defs>
<clipPath id="clip0">
<rect width="76.96" height="76.98" fill="white"/>
</clipPath>
</defs>
</svg>
