<svg width="85" height="88" viewBox="0 0 85 88" fill="none" xmlns="http://www.w3.org/2000/svg">
<g clip-path="url(#clip0)">
<path d="M62.4067 0.774536C62.4067 8.70553 62.4067 16.6365 62.4067 24.614C60.0615 24.614 57.8247 24.614 55.4949 24.614C55.4949 19.022 55.4949 13.4301 55.4949 7.76837C39.5584 7.76837 23.7148 7.76837 7.80919 7.76837C7.80919 31.9099 7.80919 56.0669 7.80919 80.2859C23.6606 80.2859 39.481 80.2859 55.4253 80.2859C55.4253 74.6939 55.4253 69.0865 55.4253 63.4248C57.8014 63.4248 60.0538 63.4248 62.3603 63.4248C62.3603 71.379 62.3603 79.279 62.3603 87.2178C41.8494 87.2178 21.385 87.2178 0.796802 87.2178C0.796802 86.8537 0.796802 86.5052 0.796802 86.1489C0.796802 57.9412 0.796802 29.7413 0.796802 1.53356C0.796802 1.27797 0.789062 1.02238 0.789062 0.774536C21.3231 0.774536 41.8649 0.774536 62.4067 0.774536Z" stroke="white" stroke-width="2" stroke-miterlimit="10"/>
<path d="M40.2637 47.555C40.2637 45.154 40.2637 42.8924 40.2637 40.5302C49.8302 40.5302 59.3426 40.5302 69.1336 40.5302C67.098 38.7023 65.2482 37.0449 63.3829 35.3719C65.0237 33.6138 66.6104 31.9021 68.2435 30.1517C73.437 34.7678 78.5996 39.3607 83.8318 44.0155C78.5996 48.6703 73.4371 53.2632 68.2358 57.887C66.6104 56.1443 65.0237 54.4327 63.3751 52.6745C65.2405 51.0016 67.0748 49.3596 69.0872 47.555C59.3658 47.555 49.8457 47.555 40.2637 47.555Z" stroke="white" stroke-width="2" stroke-miterlimit="10"/>
</g>
<defs>
<clipPath id="clip0">
<rect width="85" height="88" fill="white"/>
</clipPath>
</defs>
</svg>
