<svg width="1366" height="334" viewBox="0 0 1366 334" fill="none" xmlns="http://www.w3.org/2000/svg">
<path d="M969.16 152.619C967.022 154.295 965.271 155.841 963.365 157.155C955.485 162.541 949.537 161.304 943.305 153.908C939.236 149.063 934.575 144.708 929.965 140.378C928.832 139.295 926.746 138.471 925.278 138.677C923.192 138.986 920.565 139.914 919.51 141.46C918.686 142.646 919.304 145.79 920.385 147.104C925.407 153.186 930.841 158.933 937.047 165.814C927.364 165.608 919.69 162.31 912.557 157.98C898.393 149.346 882.71 145.403 866.666 142.517C842.562 138.213 818.561 140.197 794.406 142.697C775.504 144.656 756.37 144.424 737.339 144.785C733.863 144.862 730.18 143.445 726.909 142.002C725.004 141.151 723.768 138.857 722.223 137.182C723.716 135.868 725.03 133.883 726.781 133.316C738.318 129.528 749.777 125.353 761.572 122.57C786.938 116.565 812.304 109.916 838.802 111.9C853.97 113.034 869.138 114.349 884.306 115.354C912.17 117.235 939.364 112.029 966.481 106.978C1005.52 99.7103 1044.38 91.5149 1083.4 84.1185C1092.18 82.4433 1101.24 81.799 1110.2 81.6702C1132.33 81.3094 1153.18 75.2273 1174.2 69.2225C1184.99 66.1557 1196.45 64.7382 1207.68 64.0682C1251.53 61.5168 1295.44 59.6612 1339.32 57.2903C1347.84 56.8264 1356.34 55.3316 1365.33 54.2492C1365.33 107.133 1365.33 159.758 1365.33 213.337C1353.07 212.229 1340.99 211.198 1328.94 210.039C1301.28 207.384 1274.91 198.931 1248.57 190.864C1217.46 181.329 1190.45 187.076 1164.85 206.894C1142.45 224.213 1118.03 238.439 1090.22 246.119C1080.59 248.773 1073.4 247.485 1066.45 240.397C1060.01 233.826 1052.75 228.079 1045.98 221.842C1044.02 220.038 1042.48 217.77 1040.52 215.425C1054.84 211.971 1071.52 215.579 1079.35 197.488C1075.28 197.745 1072.35 197.952 1069.7 198.132C1070.7 195.787 1071.76 193.261 1072.84 190.761C1069.54 189.653 1066.09 187.36 1062.97 187.72C1056.92 188.442 1051.03 190.684 1045.08 192.282C1042.86 192.875 1040.65 193.519 1038.38 194.137C1041.09 187.901 1043.63 181.973 1046.18 176.072C1045.75 175.479 1045.28 174.886 1044.85 174.319C1041.99 175.041 1039.03 175.505 1036.3 176.535C1034.54 177.206 1032.82 178.443 1031.63 179.886C1021.13 192.385 1007.04 198.003 991.616 201.122C974.387 204.601 959.992 213.93 946.086 223.955C931.407 234.522 915.261 238.31 896.513 236.274C897.414 234.702 897.929 233.31 898.831 232.279C902.977 227.641 907.483 223.311 911.398 218.517C920.359 207.513 919.973 204.008 909.132 195.117C915.75 192.694 922.085 190.297 928.446 188.03C946.936 181.432 963.984 172.309 979.744 160.48C988.757 153.702 998.723 148.135 1008.25 142.027C1010.78 140.404 1013.87 139.27 1015.69 137.105C1017.34 135.146 1018.24 132.028 1018.19 129.451C1018.17 128.626 1013.99 127.054 1011.86 127.286C1008.53 127.673 1005.26 129.038 1002.15 130.43C997.101 132.724 991.744 134.76 987.341 138.058C981.237 142.62 976.37 141.228 971.246 136.925C968.954 135.017 966.662 132.595 963.958 131.822C961.769 131.203 958.061 131.873 956.747 133.445C955.485 134.914 955.434 139.141 956.67 140.661C960.121 144.811 964.55 148.316 969.16 152.619Z" fill="white" stroke="black" stroke-width="0.5" stroke-miterlimit="10"/>
<path d="M-4.03711 71.542C5.8002 71.542 15.4057 71.6451 25.037 71.5162C53.1326 71.1554 81.2539 69.9699 109.324 70.5111C125.934 70.8204 142.647 72.8048 159 75.8201C172.468 78.2942 179.91 88.6801 184.134 101.437C185.447 105.432 187.533 109.22 189.645 112.88C191.138 115.457 193.919 117.441 194.872 120.121C195.902 122.982 196.752 127.389 195.31 129.27C193.894 131.1 189.258 131.564 186.4 130.92C182.563 130.044 178.803 127.956 175.532 125.662C157.351 112.957 137.754 105.097 115.375 102.313C87.2542 98.8084 59.4676 92.6747 31.5008 87.7523C29.2346 87.34 26.8139 87.2369 24.522 87.5204C10.3583 89.2471 2.60694 84.969 -4.03711 71.542Z" fill="white" stroke="black" stroke-width="0.5" stroke-miterlimit="10"/>
<path d="M110.43 26.6478C110.43 29.9723 110.07 32.8072 110.585 35.4617C110.868 36.9564 112.49 39.0955 113.726 39.2759C115.04 39.4563 117.357 38.0131 118.001 36.6729C119.366 33.8381 119.984 30.6166 120.808 27.524C123.538 17.2669 133.118 12.0611 143.238 15.3856C158.226 20.3338 170.973 37.1626 171.926 53.2441C172.467 62.2899 163.685 68.604 155.316 64.3259C149.341 61.2591 143.779 56.8779 138.938 52.1359C128.766 42.1881 117.203 40.3067 103.528 42.4458C93.7169 43.9663 83.3903 43.3478 73.3985 42.5746C54.0329 41.0799 34.9506 42.6777 15.791 45.1776C8.65766 46.1054 1.3183 45.3322 -6.33008 45.3322C-6.33008 37.5492 -6.33008 29.7662 -6.33008 20.4368C11.9024 21.3904 29.7744 22.112 47.6464 23.349C64.0762 24.5088 80.4288 26.3901 96.8329 27.6271C101.005 27.9879 105.305 27.0601 110.43 26.6478Z" fill="white" stroke="black" stroke-width="0.5" stroke-miterlimit="10"/>
<path d="M298.574 145.558C295.819 131.126 289.921 121.59 274.522 124.193C268.805 114.168 285.981 98.3959 297.183 100.999C301.767 102.055 306.351 103.164 310.987 103.731C324.3 105.328 336.996 102.983 348.868 96.7465C357.546 92.1592 366.019 87.1337 374.826 82.8557C378.689 80.9743 383.196 79.9177 387.496 79.5053C392.441 79.0415 395.196 77.8817 392.544 71.98C393.007 71.6965 393.445 71.3873 393.908 71.1038C400.243 75.6396 406.784 79.9435 412.836 84.8143C416.622 87.8553 416.184 91.953 412.115 94.4271C407.068 97.5197 401.737 100.509 396.149 102.313C382.165 106.797 368.002 110.689 353.838 114.606C339.056 118.704 325.511 125.095 313.665 135.017C309.287 138.677 304.265 141.615 298.574 145.558Z" fill="white" stroke="black" stroke-width="0.5" stroke-miterlimit="10"/>
<path d="M210.837 59.9963C210.837 54.507 210.837 48.8372 210.837 43.1417C210.837 38.709 212.846 37.7296 217.044 38.7863C220.185 39.5852 223.714 38.8636 226.907 39.5594C230.023 40.2295 233.911 41.0026 235.766 43.1675C240.89 49.1722 245.191 55.8729 249.672 62.4188C253.174 67.5216 251.706 71.7997 247.74 76.2324C244.753 79.5827 242.796 83.8866 240.324 87.7266C239.654 88.7832 239.036 89.9687 238.083 90.6903C229.688 96.9786 221.113 103.061 212.795 109.452C209.679 111.849 207.232 111.617 204.271 109.375C198.167 104.71 193.146 100.02 190.159 92.0046C187.146 83.835 180.012 77.186 174.553 69.6864C179.446 66.3877 184.673 61.9292 193.197 64.8156C196.751 66.0269 201.798 62.9085 206.151 61.6972C207.593 61.3107 208.958 60.6921 210.837 59.9963Z" fill="white" stroke="black" stroke-width="0.5" stroke-miterlimit="10"/>
<path d="M941.116 250.268C938.437 254.778 938.566 257.51 943.099 260.19C952.55 265.731 954.507 269.648 952.678 276.71C950.592 284.776 947.013 287.766 938.721 288.127C935.296 288.255 931.819 287.714 928.446 288.23C926.823 288.462 924.866 290.137 924.248 291.657C923.913 292.456 925.819 294.75 927.184 295.575C928.755 296.528 930.841 296.683 932.72 297.069C940.446 298.693 943.124 302.017 940.369 309.156C938.128 315.006 934.626 320.65 930.506 325.367C928.497 327.66 923.218 329.103 920.462 328.098C917.63 327.067 914.23 322.583 914.23 319.594C914.256 310.909 914.951 301.992 917.063 293.59C920.179 281.168 924.634 269.056 928.677 256.866C931.69 247.742 937.098 240.733 946.06 236.429C950.85 234.135 955.202 230.914 959.58 227.821C966.121 223.208 980.027 227.563 982.525 235.295C982.963 236.635 982.963 238.284 982.628 239.65C979.795 250.758 963.623 259.056 952.91 254.958C949.15 253.49 945.391 251.969 941.116 250.268Z" fill="white" stroke="black" stroke-width="0.5" stroke-miterlimit="10"/>
<path d="M281.759 94.5045C282.609 84.8659 277.974 78.4746 268.033 73.4233C272.128 71.4389 274.883 70.4081 277.252 68.8618C280.858 66.5165 284.824 64.326 287.579 61.156C294.12 53.5792 302.799 50.5124 311.966 48.8372C330.276 45.4611 348.071 40.9253 364.784 32.2403C375.368 26.7252 391.334 32.9361 395.171 43.1932C395.712 44.6364 396.047 46.9301 395.274 47.8579C394.553 48.7341 392.133 48.8372 390.716 48.3991C382.192 45.7189 373.977 47.0332 365.531 49.1207C357.264 51.1567 348.689 51.9298 340.319 53.5792C327.598 56.079 316.602 61.7488 307.537 71.2585C299.657 79.5312 291.39 87.4173 283.278 95.4838C282.789 95.0973 282.274 94.788 281.759 94.5045Z" fill="white" stroke="black" stroke-width="0.5" stroke-miterlimit="10"/>
<path d="M919.485 247.742C917.322 255.964 915.854 263.102 913.536 269.958C910.266 279.622 905.115 281.632 896.076 277.741C894.377 277.019 892.085 276.169 890.617 276.761C888.042 277.792 885.878 279.905 883.561 281.581C885.26 283.333 886.677 286.194 888.66 286.658C902.849 290.008 905.939 299.26 903.467 312.223C902.643 316.604 903.081 321.217 902.488 325.65C901.948 329.748 899.99 333.072 895.252 333.33C890.411 333.588 888.248 330.392 887.552 326.32C885.518 314.311 882.865 302.301 882.093 290.188C881.346 278.076 882.453 265.86 883.123 253.696C883.2 252.149 885.492 249.521 886.908 249.392C897.338 248.567 907.819 248.258 919.485 247.742Z" fill="white" stroke="black" stroke-width="0.5" stroke-miterlimit="10"/>
<path d="M225.824 111.101C231.515 107.88 237.181 104.555 243.001 101.463C247.044 99.3238 249.671 96.7724 249.774 91.6438C249.902 85.6648 256.521 81.0259 262.469 82.0052C269.809 83.2165 271.895 86.9792 270.066 94.891C268.083 103.602 266.667 112.442 264.504 121.127C263.937 123.369 261.954 125.843 259.92 126.977C255.285 129.554 253.07 132.904 253.147 138.29C253.199 141.383 252.838 144.862 251.448 147.517C247.971 154.114 242.306 153.985 238.726 147.568C237.284 144.965 235.971 142.233 235.018 139.424C231.979 130.404 229.12 121.281 225.824 111.101Z" fill="white" stroke="black" stroke-width="0.5" stroke-miterlimit="10"/>
<path d="M1061.12 252.742C1050.33 253.979 1040.47 251.814 1031.45 246.377C1021.8 240.552 1011.78 237.176 1000.32 239.135C998.801 239.392 995.788 238.413 995.479 237.408C992.826 228.285 985.538 223.569 977.658 218.337C987.65 213.337 997.256 209.008 1008.05 208.157C1016.31 207.513 1022.98 210.451 1028.52 216.688C1039.15 228.671 1050 240.475 1061.12 252.742Z" fill="white" stroke="black" stroke-width="0.5" stroke-miterlimit="10"/>
<path d="M997.796 244.521C1006.11 247.665 1014.64 250.423 1022.67 254.185C1025.22 255.371 1028.62 260.087 1027.95 261.608C1026.69 264.546 1023.08 267.793 1019.99 268.385C1014.25 269.442 1008.17 268.695 1001.5 269.906C1006.58 274.081 1011.68 278.256 1017.73 283.23C1010.52 284.441 1004.65 285.111 998.929 286.529C996.586 287.121 994.628 289.261 992.491 290.678C994.628 292.533 996.508 295.214 999.006 296.038C1002.1 297.069 1005.75 296.245 1009.02 296.863C1011.06 297.25 1013.48 298.461 1014.61 300.085C1017.34 304.028 1014.12 318.073 1010.29 321.037C1005.42 324.774 999.084 323.691 996.508 317.609C993.959 311.604 991.358 304.904 991.512 298.564C991.924 280.91 993.727 263.308 994.989 245.681C995.942 245.32 996.869 244.933 997.796 244.521Z" fill="white" stroke="black" stroke-width="0.5" stroke-miterlimit="10"/>
<path d="M353.401 228.749C350.182 232.176 347.195 234.986 344.645 238.13C340.602 243.129 336.044 242.382 332.619 238.362C328.087 233.027 324.275 227.022 320.773 220.94C316.833 214.085 311.451 209.059 304.086 206.663C292.574 202.9 284.746 195.117 278.977 184.963C278.153 183.52 278.643 180.685 279.518 179.035C281.424 175.376 283.484 171.536 286.42 168.727C289.407 165.84 293.476 162.361 297.133 162.284C302.231 162.181 302.566 167.799 302 171.794C299.811 187.592 309.854 197.668 319.254 207.41C325.177 213.544 333.108 217.847 340.422 222.538C344.388 225.063 348.894 226.636 353.401 228.749Z" fill="white" stroke="black" stroke-width="0.5" stroke-miterlimit="10"/>
<path d="M265.457 25.3335C272.049 20.2307 267.465 16.1072 264.504 10.6694C272.204 9.53548 279.26 8.47884 286.316 7.44798C300.248 5.41202 314.206 3.42761 328.137 1.36588C338.49 -0.154644 348.327 -0.25773 355.177 9.7932C345.803 11.4684 336.43 12.6538 327.339 14.9217C320.798 16.5711 314.231 19.0194 308.334 22.2667C299.45 27.1633 290.514 28.9415 280.547 26.7767C275.861 25.7974 270.993 25.8489 265.457 25.3335Z" fill="white" stroke="black" stroke-width="0.5" stroke-miterlimit="10"/>
<path d="M415.954 71.5678C423.165 70.3049 430.35 68.4236 437.612 67.934C449.844 67.1093 461.072 64.6094 470.78 56.3625C473.15 54.3523 477.785 54.61 481.365 54.6616C484.017 54.6874 486.747 55.8729 489.27 56.9553C491.434 57.883 495.116 59.5582 495.013 60.5891C494.756 63.2435 493.365 66.465 491.356 68.1144C484.661 73.5264 476.678 75.3046 468.051 75.485C461.767 75.6139 455.458 76.619 449.277 77.8045C446.033 78.423 442.479 78.7323 441.912 84.067C441.552 87.5977 433.466 87.7265 429.835 86.773C422.624 84.8401 422.444 76.3613 415.877 74.2995C415.903 73.346 415.928 72.444 415.954 71.5678Z" fill="white" stroke="black" stroke-width="0.5" stroke-miterlimit="10"/>
<path d="M376.321 14.664C356.363 28.1168 334.963 34.7659 312.352 37.7554C302.695 39.0182 294.403 42.7809 286.832 48.7599C280.239 53.94 261.106 54.0688 254.359 49.4042C248.41 45.3065 248.461 39.6367 255.183 37.4204C261.106 35.4875 267.878 34.1989 273.93 35.0494C289.381 37.24 303.674 36.338 318.147 29.1477C326.645 24.9211 337.126 24.7665 346.628 22.4986C354.483 20.6431 362.26 18.3752 370.063 16.2877C371.866 15.798 373.642 15.3599 376.321 14.664Z" fill="white" stroke="black" stroke-width="0.5" stroke-miterlimit="10"/>
<path d="M431.816 124.193C433.696 130.842 436.116 137.388 437.327 144.166C438.666 151.614 439.104 159.243 439.464 166.82C439.541 168.521 437.61 171.819 436.76 171.768C434.262 171.613 430.502 170.788 429.627 169.062C427.309 164.397 425.841 159.191 424.76 154.063C423.498 148.032 423.369 141.744 422.107 135.713C421.257 131.641 418.811 127.879 417.935 123.807C416.879 118.962 415.798 113.756 416.57 108.988C416.983 106.308 421.489 101.978 423.395 102.339C426.665 102.958 430.708 106.127 431.97 109.246C433.747 113.601 433.258 118.859 433.747 123.755C433.078 123.884 432.434 124.039 431.816 124.193Z" fill="white" stroke="black" stroke-width="0.5" stroke-miterlimit="10"/>
<path d="M265.561 173.984C261.157 170.015 256.625 165.892 251.191 161.021C259.612 158.315 261.132 152.568 261.363 145.635C261.647 137.053 264.505 134.734 272.952 134.734C275.733 134.734 278.978 133.935 281.193 135.069C283.279 136.151 285.236 139.141 285.596 141.563C286.292 146.048 285.802 150.738 285.802 154.243C282.48 158.985 279.957 163.65 276.403 167.361C273.853 169.964 269.965 171.355 265.561 173.984Z" fill="white" stroke="black" stroke-width="0.5" stroke-miterlimit="10"/>
<path d="M467.123 47.7548C464.136 47.4455 460.763 47.961 458.239 46.7239C443.843 39.5336 429.345 37.8843 414.512 44.8941C408.666 47.6517 406.091 43.6056 403.644 39.9975C400.528 35.436 398.056 30.4105 395.172 25.3335C402.254 20.6946 409.825 20.2823 417.422 23.4779C428.238 28.0137 438.899 32.9361 449.586 37.7554C455.535 40.4357 461.432 43.2448 467.355 46.0023C467.278 46.5693 467.201 47.162 467.123 47.7548Z" fill="white" stroke="black" stroke-width="0.5" stroke-miterlimit="10"/>
<path d="M875.01 232.64C870.658 232.331 866.332 230.037 864.967 224.213C863.628 218.517 866.255 214.291 871.508 212.642C880.212 209.91 889.097 207.719 897.981 205.709C902.436 204.704 902.874 207.977 902.256 211.276C900.685 219.6 884.873 232.537 875.01 232.64Z" fill="white" stroke="black" stroke-width="0.5" stroke-miterlimit="10"/>
<path d="M241.199 35.0493C237.62 30.7455 233.551 25.8746 228.941 20.3337C232.238 17.2669 234.864 14.0712 238.161 11.9322C243.569 8.42726 247.946 9.53544 252.273 14.3805C255.621 18.1174 259.123 21.7512 262.162 24.9984C255.827 28.0395 248.848 31.364 241.199 35.0493Z" fill="white" stroke="black" stroke-width="0.5" stroke-miterlimit="10"/>
<path d="M488.625 155.377C485.097 154.037 483.217 153.418 481.44 152.594C480.822 152.31 480.307 151.589 479.946 150.944C474.59 140.893 469.285 130.817 463.594 120.018C465.911 118.472 468.873 116.488 472.864 113.833C473.946 127.441 483.294 134.554 489.397 143.599C493.595 149.785 493.183 152.027 488.625 155.377Z" fill="white" stroke="black" stroke-width="0.5" stroke-miterlimit="10"/>
<path d="M489.76 167.747C499.983 161.511 501.142 162.052 504.748 172.257C507.58 180.272 511.005 188.107 514.018 196.07C514.997 198.699 515.512 201.508 515.254 204.678C502.378 195.297 499.031 179.654 489.76 167.747Z" fill="white" stroke="black" stroke-width="0.5" stroke-miterlimit="10"/>
<path d="M577.394 97.8805C573.634 93.0097 569.256 87.2884 564.801 81.4898C573.273 76.7994 583.368 82.2372 594.725 96.6951C589.523 97.0559 584.218 97.4167 577.394 97.8805Z" fill="white" stroke="black" stroke-width="0.5" stroke-miterlimit="10"/>
<path d="M457.723 111.333C454.453 111.333 451.466 111.333 446.933 111.333C444.023 108.06 439.98 103.525 434.443 97.3136C440.392 95.4581 445.234 92.2108 448.813 93.2417C454.35 94.8653 458.779 107.158 457.723 111.333Z" fill="white" stroke="black" stroke-width="0.5" stroke-miterlimit="10"/>
<path d="M181.763 53.5533C178.75 42.5746 179.059 41.4149 187.841 34.8689C191.575 39.9202 195.489 44.8941 198.94 50.1515C199.79 51.4143 199.687 53.9399 198.966 55.3574C198.605 56.079 195.901 55.9243 194.33 55.7182C190.416 55.177 186.502 54.378 181.763 53.5533Z" fill="white" stroke="black" stroke-width="0.5" stroke-miterlimit="10"/>
<path d="M506.6 56.5687C521.021 71.7482 540.593 70.8977 558.413 75.4593C553.803 82.4176 545.151 83.5516 538.842 79.1446C533.64 75.5108 527.897 72.6244 522.18 69.7895C519.167 68.2948 515.793 67.4443 512.497 66.6454C507.81 65.4857 505.879 62.625 506.6 56.5687Z" fill="white" stroke="black" stroke-width="0.5" stroke-miterlimit="10"/>
<path d="M345.754 250.242C349.102 248.052 351.78 245.913 354.767 244.444C360.69 241.557 365.995 244.547 367.283 251.17C368.107 255.5 368.957 259.804 369.523 262.613C362.57 259.005 354.664 254.881 345.754 250.242Z" fill="white" stroke="black" stroke-width="0.5" stroke-miterlimit="10"/>
<path d="M439.285 216.301C435.422 205.193 431.559 194.112 427.49 182.411C437.92 184.422 440.032 190.864 440.16 199.06C440.238 204.601 441.113 210.116 441.654 215.631C440.856 215.863 440.083 216.069 439.285 216.301Z" fill="white" stroke="black" stroke-width="0.5" stroke-miterlimit="10"/>
<path d="M200.485 36.2606C199.558 34.8947 198.271 33.0392 196.932 31.1063C201.876 27.0859 208.16 24.3284 206.614 16.3907C206.537 16.0557 209.988 14.1486 210.864 14.6383C213.799 16.2361 216.323 18.6071 218.95 20.643C211.997 26.519 206.357 31.2609 200.485 36.2606Z" fill="white" stroke="black" stroke-width="0.5" stroke-miterlimit="10"/>
<path d="M564.699 98.4476C555.557 97.5971 547.986 97.0043 540.466 96.0508C539.204 95.8962 538.097 94.2983 536.912 93.3706C538.225 92.6232 539.539 91.2831 540.852 91.2573C546.157 91.2057 551.617 90.948 556.767 91.9789C559.368 92.5201 561.428 95.6385 564.699 98.4476Z" fill="white" stroke="black" stroke-width="0.5" stroke-miterlimit="10"/>
<path d="M569.564 105.38C580.561 104.607 582.595 111.668 586.097 118.91C576.26 118.756 575.642 109.916 569.564 105.38Z" fill="white" stroke="black" stroke-width="0.5" stroke-miterlimit="10"/>
<path d="M507.398 74.5572C519.038 75.6396 526.867 82.366 523.03 88.7059C517.854 84.0154 512.781 79.4281 507.398 74.5572Z" fill="white" stroke="black" stroke-width="0.5" stroke-miterlimit="10"/>
<path d="M404.932 55.6666C411.344 55.6666 415.464 55.6666 420.228 55.6666C420.872 56.5171 421.954 57.9603 423.756 60.3313C419.997 61.1044 416.623 62.7023 413.687 62.1095C410.983 61.5683 408.743 58.6304 404.932 55.6666Z" fill="white" stroke="black" stroke-width="0.5" stroke-miterlimit="10"/>
<path d="M374.57 269.88C382.399 271.091 388.219 274.442 389.713 282.818C384.665 278.488 379.618 274.184 374.57 269.88Z" fill="white" stroke="black" stroke-width="0.5" stroke-miterlimit="10"/>
<path d="M594.338 120.508C598.021 125.997 600.673 129.966 603.326 133.935C602.862 134.425 602.373 134.914 601.909 135.404C598.793 132.466 595.523 129.657 592.742 126.461C592.201 125.843 593.463 123.601 594.338 120.508Z" fill="white" stroke="black" stroke-width="0.5" stroke-miterlimit="10"/>
</svg>
