<svg width="1366" height="334" viewBox="0 0 1366 334" fill="none" xmlns="http://www.w3.org/2000/svg">
<g clip-path="url(#clip0)">
<path d="M901.581 79.2639C900.815 78.6971 835.298 98.9311 829.685 100.291C804.482 106.413 769.668 118.315 744.182 110.352C666.559 86.0936 766.408 21.5942 792.915 2.83381C779.506 2.26703 759.207 23.8896 747.895 30.606C731.027 40.6096 709.623 53.4755 690.146 56.9045C660.095 62.2039 644.333 30.9177 663.866 6.09279C658.224 5.04425 654.737 7.79312 653.405 14.3678C655.389 7.67977 653.717 5.10093 648.415 6.63123C648.614 23.0395 657.998 53.8439 650.088 68.6935C641.129 85.5268 607.053 90.3444 591.545 88.4457C565.293 85.2434 543.152 66.228 518.034 58.7465C490.591 50.5566 462.439 56.3377 434.798 60.7586C435.479 65.9446 469.98 58.1797 477.238 57.5563C500.428 55.6009 516.418 61.6087 537.113 72.6326C566.427 88.2757 605.862 114.177 591.659 154.56C581.793 182.616 529.997 198.429 505.701 213.109C489.542 222.886 471.596 231.614 456.372 242.836C445.628 250.743 424.734 263.042 420.566 273.669C438.03 267.321 446.847 252.33 461.986 242.269C476.161 232.861 493.001 225.408 507.828 216.849C537.765 199.534 568.808 182.984 601.723 172.017C636.196 160.54 667.155 161.39 688.445 190.126C712.316 222.347 726.123 256.042 745.457 291.069C732.955 243.063 693.35 194.433 713.762 145.152C723.996 120.412 746.45 121.234 771.227 118.258C783.616 116.785 832.492 125.825 799.606 113.242C822.201 105.959 846.128 99.2712 869.46 94.7936C874.762 93.7451 916.294 90.0894 901.581 79.2639ZM729.014 116.019C728.958 120.525 707.242 142.828 699.048 150.026C705.824 153.314 707.922 162.212 697.234 167.596C702.337 167.285 704.407 168.787 703.471 172.159C700.352 172.159 697.234 172.159 694.087 172.159C696.667 175.078 699.559 177.685 702.762 179.924C695.561 183.466 701.09 188.766 700.806 193.47C697.206 183.948 701.742 199.336 689.098 183.636C682.889 175.928 679.487 167.908 672.484 164.167C656.325 155.496 644.361 160.653 629.109 144.613C625.423 148.156 635.658 157.904 639.116 158.953C629.903 164.734 607.705 164.847 598.576 158.074C604.473 165.499 603.282 166.718 595.032 161.73C595.628 153.342 596.223 144.954 596.818 136.537C595.231 119.789 580.404 107.008 581.509 90.9112C585.507 99.7529 587.775 93.6884 594.068 94.3685C579.638 101.595 591.829 103.04 597.13 100.49C600.192 99.0161 603.566 97.3725 609.009 95.3604C620.802 90.9962 657.119 80.2841 651.449 68.6651C667.41 71.499 656.07 70.4221 663.299 61.8638C656.24 62.4306 654.511 59.455 658.111 52.9087C665.992 63.8759 678.835 61.0136 689.268 67.0498C691.507 65.3495 690.94 63.5358 687.567 61.6371C695.023 57.783 702.564 57.6413 710.133 61.212C706.901 58.4631 706.448 56.1677 708.801 54.269C712.345 55.7142 714.698 58.2648 715.888 61.9205C712.089 63.0257 708.205 63.6208 704.236 63.7908C705.654 64.7827 730.177 112.449 728.646 115.368C735.705 109.076 736.499 111.032 745.032 115.736C740.156 120.27 734.798 120.384 729.014 116.019Z" fill="white" stroke="white" stroke-width="2" stroke-miterlimit="10"/>
<path d="M121.276 394.166C129.526 366.904 142.255 337.743 155.296 311.955C165.615 291.579 181.831 271.77 185.857 248.476C192.463 210.36 161.391 192.478 134.6 172.697C122.353 163.657 79.8849 135.262 113.451 146.37C115.719 147.107 133.693 165.471 137.01 167.625C150.023 176.013 166.352 190.721 181.605 194.263C213.725 201.745 238.73 175.078 253.585 150.423C266.541 128.914 270.765 100.065 287.038 82.6645C300.363 68.41 327.182 47.2125 346.233 47.2125C334.468 59.54 322.164 58.9732 308.357 68.8635C292.368 80.3407 288.938 94.9636 281.17 111.57C297.131 106.838 305.437 88.8991 322.986 87.5105C303.85 101.141 257.016 126.562 278.873 151.783C307.62 184.911 357.431 156.714 390.771 155.467C419.178 154.419 445.656 158.216 471.483 161.645C496.119 164.904 511.995 150.763 534.307 147.362C551.515 144.755 570.311 150.48 588.512 147.929C587.917 145.265 475.764 162.467 464.679 165.641C458.471 167.426 458.13 176.268 450.022 176.041C442.51 175.815 441.943 167.653 436.301 165.839C415.265 159.066 392.018 162.325 371.408 167.256C336.396 175.645 287.86 204.38 291.914 248.022C294.608 277.013 303.283 266.414 318.563 260.576C333.532 254.823 353.774 251.678 366.815 243.8C352.215 258.281 298.945 258.167 313.12 287.385C315.53 292.373 331.548 305.975 336.367 311.53C346.573 323.319 355.362 330.318 371.975 331.14C347.736 336.638 335.829 312.493 318.507 301.866C325.339 325.132 333.731 348.597 334.099 373.138C325.849 332.841 305.041 255.844 252.621 256.524C228.864 256.836 195.043 271.572 178.911 289C161.958 307.336 164.254 329.1 152.773 348.002C140.667 317.878 137.322 394.166 121.276 394.166ZM300.164 203.417C295.288 192.279 321.739 206.477 304.19 191.599C308.528 185.308 309.35 193.81 314.113 192.96C310.54 179.867 320.69 185.081 321.257 177.883C321.37 176.608 312.185 159.038 313.46 176.41C310.144 176.126 303.935 168.957 299.541 167.483C289.533 164.111 271.049 143.111 264.727 143.14C266.116 147.731 238.928 176.778 234.392 180.576C217.354 194.802 199.664 197.636 178.259 197.636C177.721 209.878 192.179 187.405 181.321 210.416C199.635 208.404 184.61 264.232 185.602 266.357C194.986 263.779 195.61 268.284 204.568 268.284C205.05 265.309 202.867 264.147 198.076 264.799C207.602 259.244 239.921 259.046 240.176 248.022C242.472 253.52 245.506 255.334 249.276 253.492C244.23 243.545 248.142 240.767 261.013 245.188C239.921 254.824 276.067 248.957 276.322 249.326C280.461 237.423 304.048 215.744 305.494 200.923C303.736 201.745 301.95 202.567 300.164 203.417Z" fill="white" stroke="white" stroke-width="2" stroke-miterlimit="10"/>
<path d="M1126.28 394.166C1112.59 359.309 1100.37 291.013 1059.18 278.713C1017.76 266.329 980.535 311.927 968.061 344.715C964.971 334.059 971.151 323.092 973.901 313.23C953.461 319.947 938.435 338.282 917.598 346.018C939.909 330.205 1007.16 297.672 1009.45 267.435C1012.71 224.331 948.868 229.772 925.734 240.824C920.716 232.748 951.93 228.497 952.78 222.801C924.317 209.963 893.784 206.393 868.779 186.329C903.65 202.935 999.926 250.545 1019.23 190.041C1025.81 169.382 1014.1 140.618 1006.05 122.311C1001.54 112.024 981.385 78.5273 981.385 70.0256C992.527 78.5557 996.071 76.6003 1006.9 95.2756C1015.77 110.579 1021.93 144.812 1035.73 155.354C1050.05 166.265 1071.45 153.172 1083.64 141.071C1103.49 121.376 1083.9 115.906 1093.17 91.96C1090.16 104.372 1099.55 114.291 1103.29 125.06C1122.6 107.716 1137.2 85.7821 1148.51 62.5725C1145.45 101.454 1083.45 132.74 1087.24 167.937C1092.09 212.939 1175.75 208.376 1206.8 213.959C1206.31 217.501 1148.17 212.684 1139.86 213.534C1114.32 216.169 1110.75 223.566 1100.6 245.189C1091.95 263.609 1085.94 277.665 1094.62 296.397C1107.32 323.829 1128.92 314.676 1153.7 322.582C1136.83 322.582 1119.93 322.582 1103.06 322.582C1106.58 332.217 1128.18 394.166 1126.28 394.166ZM1054.19 267.066C1055.27 271.714 1046.99 267.576 1046.96 272.876C1052.18 274.689 1057.28 274.321 1061.9 274.378C1092.49 274.746 1057.7 274.293 1073.18 261.03C1081.38 276.22 1089.03 269.135 1084.13 254.257C1093.62 251.253 1100.77 240.683 1096.37 229.517C1101.73 227.25 1107.51 237.622 1099.77 223.084C1102.5 228.384 1104.65 225.833 1106.27 215.404C1104.82 219.202 1105.53 221.526 1108.39 222.347C1120.47 203.19 1115.74 209.538 1103.21 194.972C1096.4 187.037 1089.88 175.588 1082.99 168.277C1076.44 161.305 1074.69 159.548 1066.41 158.273C1059.86 163.714 1052.49 165.556 1044.32 163.856C1037.15 159.577 1029.58 156.204 1021.61 153.767C1021.73 164.423 1027.88 210.36 1012.12 205.514C1009.4 210.7 1013 214.441 1022.92 216.736C1018.78 221.441 1016.94 210.388 1014.1 218.975C1014.41 214.157 1012.15 211.267 1007.3 210.36C1005.51 215.064 1005.85 219.882 1008.35 224.785C1015.94 222.857 979.458 216.963 1002.76 226.06C992.158 233.485 997.857 221.696 984.22 228.922C989.352 234.023 997.375 237.197 1001.91 242.326C1011.55 253.237 1007.84 265.649 1021.98 254.71C1020.34 266.329 1016.77 263.921 1018.84 277.552C1027.37 271.034 1030.66 275.766 1029.98 266.301C1037.89 273.612 1043.93 269.362 1054.19 267.066ZM1075.03 153.512C1071.6 161.532 1083.22 157.111 1085.88 153.512C1082.28 153.512 1078.65 153.512 1075.03 153.512Z" fill="white" stroke="white" stroke-width="2" stroke-miterlimit="10"/>
<path d="M713.846 155.297C744.663 151.16 787.897 161.107 816.445 174.313C803.688 170.969 713.563 157.593 713.846 155.297Z" fill="white" stroke="white" stroke-width="2" stroke-miterlimit="10"/>
<path d="M1177.8 24.4848C1159.28 23.3513 1178.28 8.10494 1178.31 7.79321C1178.28 7.84989 1197.21 23.6913 1177.8 24.4848Z" fill="white" stroke="white" stroke-width="2" stroke-miterlimit="10"/>
<path d="M681.158 252.67C680.903 274.009 664.375 254.994 664.432 254.994C662.873 255.334 682.066 235.638 681.158 252.67Z" fill="white" stroke="white" stroke-width="2" stroke-miterlimit="10"/>
<path d="M1152.73 154.645C1135.84 133.42 1171.02 134.638 1152.73 154.645V154.645Z" fill="white" stroke="white" stroke-width="2" stroke-miterlimit="10"/>
<path d="M843.719 177.26C854.066 177.883 864.074 174.199 864.074 185.62C854.237 185.365 849.757 186.357 843.719 177.26Z" fill="white" stroke="white" stroke-width="2" stroke-miterlimit="10"/>
<path d="M379.203 331.339C394.654 328.505 417.391 282.652 412.94 281.207C406.362 298.465 405.342 333.747 379.203 331.339Z" fill="white" stroke="white" stroke-width="2" stroke-miterlimit="10"/>
<path d="M981.556 69.8272C972.513 56.2246 975.745 42.7352 972.541 27.8573C975.943 41.63 980.309 56.2812 981.556 69.8272Z" fill="white" stroke="white" stroke-width="2" stroke-miterlimit="10"/>
<path d="M834.221 264.034C842.471 279.337 825.177 275.936 834.221 264.034V264.034Z" fill="white" stroke="white" stroke-width="2" stroke-miterlimit="10"/>
<path d="M759.944 310.878C756.74 306.259 753.565 301.64 750.361 296.992C752.232 295.688 763.771 308.157 759.944 310.878Z" fill="white" stroke="white" stroke-width="2" stroke-miterlimit="10"/>
<path d="M1075.03 153.512C1078.66 153.512 1082.26 153.512 1085.88 153.512C1083.25 157.111 1071.62 161.532 1075.03 153.512Z" fill="white" stroke="white" stroke-width="2" stroke-miterlimit="10"/>
<path d="M679.202 107.603C674.893 120.724 647.847 151.415 640.051 125.428C635.061 108.907 677.643 89.636 679.202 107.603Z" fill="white" stroke="white" stroke-width="2" stroke-miterlimit="10"/>
<path d="M245.591 224.359C226.369 223.736 232.578 193.923 252.366 196.984C268.611 199.506 263.309 224.954 245.591 224.359Z" fill="white" stroke="white" stroke-width="2" stroke-miterlimit="10"/>
<path d="M300.391 194.745C291.942 194.036 290.695 196.559 296.648 202.311C277.654 189.984 300.305 193.583 300.391 194.745Z" fill="white" stroke="white" stroke-width="2" stroke-miterlimit="10"/>
<path d="M1038.31 227.222C1037.49 209.17 1068.28 196.417 1069.55 219.06C1070.52 236.347 1037.29 256.411 1038.31 227.222Z" fill="white" stroke="white" stroke-width="2" stroke-miterlimit="10"/>
</g>
<defs>
<clipPath id="clip0">
<rect x="-7" width="1373" height="334" fill="white"/>
</clipPath>
</defs>
</svg>
